<svg width="28" height="28" viewBox="0 0 28 28" fill="none" xmlns="http://www.w3.org/2000/svg">
<path d="M19.6604 17.4106L23.8324 21.5825C23.8714 21.6215 23.8714 21.6849 23.8324 21.7239L21.7238 23.8325C21.6847 23.8715 21.6214 23.8715 21.5824 23.8325L17.4104 19.6606L16.4694 16.5945C16.4459 16.5178 16.5177 16.446 16.5944 16.4696L19.6604 17.4106Z" stroke="#592D49" stroke-width="2" stroke-linecap="round"/>
<path d="M14 22H6.3C6.13431 22 6 21.8657 6 21.7V6.3C6 6.13431 6.13431 6 6.3 6H21.7C21.8657 6 22 6.13431 22 6.3V14" stroke="#592D49" stroke-width="2" stroke-linecap="round"/>
<path d="M10 10H11" stroke="#592D49" stroke-width="2" stroke-linecap="round"/>
<path d="M10 16H11" stroke="#592D49" stroke-width="2" stroke-linecap="round"/>
<path d="M14 10H18" stroke="#592D49" stroke-width="2" stroke-linecap="round"/>
<path d="M10 13L18 13" stroke="#592D49" stroke-width="2" stroke-linecap="round"/>
</svg>
