<svg width="28" height="28" viewBox="0 0 28 28" fill="none" xmlns="http://www.w3.org/2000/svg">
<path d="M13.9073 5.22924C13.941 5.14589 14.059 5.14589 14.0927 5.22924L16.055 10.0814C16.0693 10.1169 16.1026 10.141 16.1407 10.1437L21.3618 10.5105C21.4515 10.5168 21.4879 10.6291 21.4191 10.6869L17.4108 14.0525C17.3815 14.0771 17.3688 14.1162 17.378 14.1533L18.6425 19.2322C18.6643 19.3194 18.5688 19.3888 18.4925 19.3412L14.053 16.5691C14.0206 16.5488 13.9794 16.5488 13.947 16.5691L9.50746 19.3412C9.4312 19.3888 9.33574 19.3194 9.35746 19.2322L10.622 14.1533C10.6312 14.1162 10.6185 14.0771 10.5892 14.0525L6.58092 10.6869C6.51207 10.6291 6.54853 10.5168 6.63821 10.5105L11.8593 10.1437C11.8974 10.141 11.9307 10.1169 11.945 10.0814L13.9073 5.22924Z" stroke="#7B7882" stroke-width="2"/>
<path d="M14 23V22" stroke="#7B7882" stroke-width="2" stroke-linecap="round"/>
<path d="M8.70711 5.70711L8 5" stroke="#7B7882" stroke-width="2" stroke-linecap="round"/>
<path d="M18.9999 5.70711L19.707 5" stroke="#7B7882" stroke-width="2" stroke-linecap="round"/>
<path d="M21.9999 16L22.866 16.5" stroke="#7B7882" stroke-width="2" stroke-linecap="round"/>
<path d="M5.86603 16L5 16.5" stroke="#7B7882" stroke-width="2" stroke-linecap="round"/>
</svg>
