<svg width="40" height="40" viewBox="0 0 40 40" fill="none" xmlns="http://www.w3.org/2000/svg">
<path d="M18 16L8 16L8 29.9331L12 29.9331L9.67853 34.6382C9.63237 34.7317 9.74234 34.8246 9.82684 34.7634L16.5 29.9331L24 29.9331L24 27.5" stroke="#592D49" stroke-width="1.5"/>
<path d="M21 25H27" stroke="#592D49" stroke-width="1.5"/>
<path d="M22 27H26" stroke="#592D49" stroke-width="1.5"/>
<circle cx="24.1464" cy="16.1463" r="6" fill="#F6E45C" stroke="#592D49" stroke-width="1.5"/>
<path d="M29.0869 6.28969C29.2469 5.90763 29.0669 5.4682 28.6848 5.30821C28.3028 5.14821 27.8633 5.32824 27.7033 5.71031L29.0869 6.28969ZM27.9282 9.05687L29.0869 6.28969L27.7033 5.71031L26.5446 8.47748L27.9282 9.05687Z" fill="#592D49"/>
<path d="M14.2897 11.2057C13.9077 11.0457 13.4682 11.2257 13.3082 11.6078C13.1483 11.9898 13.3283 12.4293 13.7103 12.5893L14.2897 11.2057ZM13.7103 12.5893L16.4775 13.748L17.0569 12.3645L14.2897 11.2057L13.7103 12.5893Z" fill="#592D49"/>
<path d="M20.4225 5.76868C20.2564 5.38923 19.8142 5.21627 19.4347 5.38237C19.0553 5.54846 18.8823 5.99072 19.0484 6.37017L20.4225 5.76868ZM21.6255 8.51693L20.4225 5.76868L19.0484 6.37017L20.2514 9.11842L21.6255 8.51693Z" fill="#592D49"/>
<path d="M34.524 12.4224C34.9035 12.2563 35.0764 11.8141 34.9103 11.4346C34.7442 11.0552 34.302 10.8822 33.9225 11.0483L34.524 12.4224ZM31.7758 13.6254L34.524 12.4224L33.9225 11.0483L31.1743 12.2513L31.7758 13.6254Z" fill="#592D49"/>
<path d="M11 22L17 22" stroke="#592D49" stroke-width="1.5"/>
<path d="M15 25H11" stroke="#592D49" stroke-width="1.5"/>
</svg>
