<svg width="100" height="74" viewBox="0 0 100 74" fill="none" xmlns="http://www.w3.org/2000/svg">
<path d="M6.76733 61.9539C6.76733 62.022 6.71871 62.0711 6.65006 62.0711H5.83012C5.77149 62.0711 5.71286 62.022 5.71286 61.9539V57.3255L3.90613 60.3621C3.85751 60.4499 3.80841 60.4794 3.71068 60.4794H3.09573C2.98848 60.4794 2.94939 60.4499 2.90028 60.3621L1.05495 57.3255V61.9539C1.05495 62.022 1.00585 62.0711 0.937681 62.0711H0.117269C0.0586339 62.0711 0 62.022 0 61.9539V55.5484C0 55.4797 0.0586339 55.4211 0.117269 55.4211H0.986308C1.08403 55.4211 1.14267 55.4311 1.2013 55.5484L3.3789 59.22L5.55649 55.5484C5.62466 55.4311 5.6833 55.4211 5.78102 55.4211H6.65006C6.71871 55.4211 6.76733 55.4797 6.76733 55.5484V61.9539Z" fill="#8C4673"/>
<path d="M10.3002 55.4211C10.3588 55.4211 10.4175 55.4797 10.4175 55.5484V61.9539C10.4175 62.022 10.3588 62.0711 10.3002 62.0711H9.44069C9.38206 62.0711 9.32343 62.022 9.32343 61.9539V55.5484C9.32343 55.4797 9.38206 55.4211 9.44069 55.4211H10.3002Z" fill="#8C4673"/>
<path d="M13.9518 55.4211C14.0104 55.4211 14.069 55.4797 14.069 55.5484V61.1044H17.1838C17.2525 61.1044 17.3011 61.163 17.3011 61.2216V61.9539C17.3011 62.022 17.2525 62.0711 17.1838 62.0711H13.0922C13.0336 62.0711 12.975 62.022 12.975 61.9539V55.5484C12.975 55.4797 13.0336 55.4211 13.0922 55.4211H13.9518Z" fill="#8C4673"/>
<path d="M20.3758 55.4211C20.4345 55.4211 20.4931 55.4797 20.4931 55.5484V61.1044H23.6079C23.6766 61.1044 23.7252 61.163 23.7252 61.2216V61.9539C23.7252 62.022 23.6766 62.0711 23.6079 62.0711H19.5163C19.4577 62.0711 19.3991 62.022 19.3991 61.9539V55.5484C19.3991 55.4797 19.4577 55.4211 19.5163 55.4211H20.3758Z" fill="#8C4673"/>
<path d="M26.8 55.4211C26.8586 55.4211 26.9173 55.4797 26.9173 55.5484V61.9539C26.9173 62.022 26.8586 62.0711 26.8 62.0711H25.9405C25.8818 62.0711 25.8232 62.022 25.8232 61.9539V55.5484C25.8232 55.4797 25.8818 55.4211 25.9405 55.4211H26.8Z" fill="#8C4673"/>
<path d="M33.634 61.9439C33.6045 62.0321 33.5458 62.0712 33.4386 62.0712H32.5986C32.5204 62.0712 32.4914 62.0321 32.4914 61.983C32.4914 61.9539 32.5009 61.9248 32.5109 61.8857L34.913 55.5188C34.9426 55.4311 35.0007 55.392 35.0985 55.392H35.9971C36.1043 55.392 36.1534 55.4311 36.1925 55.5188L38.5651 61.8857C38.5751 61.9148 38.5946 61.9539 38.5946 61.983C38.5946 62.0321 38.5651 62.0712 38.4774 62.0712H37.6179C37.5106 62.0712 37.452 62.0321 37.4229 61.9439L36.9247 60.5772H34.1417L33.634 61.9439ZM35.538 56.7201L34.4149 59.6986H36.6511L35.538 56.7201Z" fill="#8C4673"/>
<path d="M44.2369 59.5222L45.8678 61.8661C45.9264 61.9639 45.9459 62.0711 45.8091 62.0711H44.8619C44.7546 62.0711 44.686 62.0516 44.6274 61.9439L43.0552 59.6204H41.5907V61.9539C41.5907 62.022 41.5321 62.0711 41.4735 62.0711H40.614C40.5553 62.0711 40.4967 62.022 40.4967 61.9539V55.5484C40.4967 55.4797 40.5553 55.4211 40.614 55.4211H43.3579C44.0024 55.4211 44.5687 55.5188 45.0083 55.8315C45.4964 56.1829 45.7896 56.7687 45.7896 57.521C45.7896 58.1941 45.526 58.7413 45.0278 59.1218C44.7742 59.3272 44.5201 59.444 44.2369 59.5222ZM41.5907 56.3487V58.7022H43.1725C43.5924 58.7022 43.9242 58.6632 44.1979 58.4973C44.481 58.3314 44.6765 58.0187 44.6765 57.5305C44.6765 57.0519 44.5006 56.7392 44.2174 56.5637C43.9538 56.3878 43.6215 56.3487 43.2602 56.3487H41.5907Z" fill="#8C4673"/>
<path d="M47.7703 58.7414C47.7703 56.8374 49.3329 55.3334 51.286 55.3334C52.2232 55.3334 52.8482 55.5774 53.3072 55.8315C53.3854 55.8706 53.405 55.9388 53.3659 55.9974L53.0241 56.7101C52.9945 56.7883 52.9264 56.7883 52.8677 56.7592C52.4577 56.5442 51.9696 56.3197 51.2564 56.3197C49.987 56.3197 48.9034 57.3937 48.9034 58.7413C48.9034 60.1867 49.9674 61.1826 51.2665 61.1826C51.9696 61.1826 52.4968 60.9676 52.9068 60.733C52.975 60.6939 53.0241 60.7039 53.0632 60.7721L53.405 61.5048C53.434 61.573 53.4245 61.6216 53.3463 61.6607C52.8386 61.9343 52.2137 62.1689 51.2564 62.1689C49.1961 62.1689 47.7703 60.8312 47.7703 58.7414Z" fill="#8C4673"/>
<path d="M61.1958 55.4211C61.264 55.4211 61.3131 55.4797 61.3131 55.5484V61.9539C61.3131 62.022 61.264 62.0711 61.1958 62.0711H60.3463C60.2777 62.0711 60.2195 62.022 60.2195 61.9539V59.22H56.7138V61.9539C56.7138 62.022 56.6552 62.0711 56.5965 62.0711H55.737C55.6784 62.0711 55.6198 62.022 55.6198 61.9539V55.5484C55.6198 55.4797 55.6784 55.4211 55.737 55.4211H56.5965C56.6552 55.4211 56.7138 55.4797 56.7138 55.5484V58.2432H60.2195V55.5484C60.2195 55.4797 60.2777 55.4211 60.3463 55.4211H61.1958Z" fill="#8C4673"/>
<path d="M64.8459 55.4211C64.9045 55.4211 64.9632 55.4797 64.9632 55.5484V61.9539C64.9632 62.022 64.9045 62.0711 64.8459 62.0711H63.9864C63.9278 62.0711 63.8691 62.022 63.8691 61.9539V55.5484C63.8691 55.4797 63.9278 55.4211 63.9864 55.4211H64.8459Z" fill="#8C4673"/>
<path d="M70.636 61.9734C70.5969 62.0711 70.5483 62.1002 70.4406 62.1002H69.5424C69.4447 62.1002 69.3956 62.0711 69.3565 61.9734L66.8667 55.597C66.8276 55.4993 66.8471 55.4211 66.9644 55.4211H67.8625C67.9703 55.4211 68.0289 55.4702 68.058 55.5579L69.9915 60.733H70.011L71.9736 55.5579C72.0127 55.4702 72.0714 55.4211 72.1691 55.4211H73.0772C73.1649 55.4211 73.204 55.4892 73.175 55.597L70.636 61.9734Z" fill="#8C4673"/>
<path d="M79.8331 55.4211C79.9013 55.4211 79.9504 55.4797 79.9504 55.5484V56.271C79.9504 56.3387 79.9013 56.3878 79.8331 56.3878H76.1615V58.2532H79.3254C79.3936 58.2532 79.4422 58.3018 79.4422 58.3705V59.1027C79.4422 59.1608 79.3936 59.22 79.3254 59.22H76.1615V61.1044H79.8331C79.9013 61.1044 79.9504 61.163 79.9504 61.2216V61.9539C79.9504 62.022 79.9013 62.0711 79.8331 62.0711H75.1847C75.1261 62.0711 75.0675 62.022 75.0675 61.9539V55.5484C75.0675 55.4797 75.1261 55.4211 75.1847 55.4211H79.8331Z" fill="#8C4673"/>
<path d="M81.8916 61.5439C81.8234 61.5048 81.8038 61.4462 81.8429 61.3775L82.1847 60.6553C82.2138 60.5967 82.2629 60.5671 82.3411 60.6162C82.7706 60.8799 83.3565 61.2317 84.1864 61.2317C84.5969 61.2317 84.9091 61.1335 85.1141 60.9776C85.3682 60.7921 85.4754 60.5185 85.4754 60.2258C85.4754 59.7763 85.1141 59.5222 84.6355 59.3372C84.0792 59.1122 83.4246 59.005 82.7997 58.6536C82.2629 58.3505 81.882 57.9309 81.882 57.1787C81.882 56.6319 82.097 56.1633 82.5165 55.8411C82.927 55.5188 83.5324 55.3334 84.3328 55.3334C85.2409 55.3334 85.9245 55.5774 86.364 55.8215C86.4327 55.8606 86.4422 55.9192 86.4131 55.9874L86.0713 56.7001C86.0322 56.7687 85.9736 56.7883 85.905 56.7492C85.4363 56.476 84.8605 56.2806 84.2746 56.2806C83.8351 56.2806 83.5128 56.3778 83.3174 56.5442C83.1319 56.6906 83.0342 56.886 83.0342 57.1301C83.0342 57.5596 83.3956 57.7841 83.9424 57.97C84.5673 58.1941 85.2705 58.3018 85.8468 58.6727C86.2959 58.9559 86.6667 59.4149 86.6667 60.1376C86.6667 60.7921 86.3936 61.2994 85.944 61.6512C85.5145 61.993 84.8996 62.1689 84.1964 62.1689C83.1415 62.1689 82.3802 61.8466 81.8916 61.5439Z" fill="#8C4673"/>
<path d="M1.09404 73.1183C1.09404 73.1869 1.03541 73.2356 0.976771 73.2356H0.117269C0.0586339 73.2356 0 73.1869 0 73.1183V66.7123C0 66.6441 0.0586339 66.5855 0.117269 66.5855H4.47246C4.54111 66.5855 4.58973 66.6441 4.58973 66.7123V67.435C4.58973 67.5036 4.54111 67.5523 4.47246 67.5523H1.09404V69.4171H4.01339C4.08204 69.4171 4.13066 69.4662 4.13066 69.5344V70.2671C4.13066 70.3257 4.08204 70.3839 4.01339 70.3839H1.09404V73.1183Z" fill="#8C4673"/>
<path d="M9.8421 73.3333C7.92812 73.3333 6.32639 71.8979 6.32639 69.9253C6.32639 67.9432 7.92812 66.4978 9.8421 66.4978C11.7461 66.4978 13.3573 67.9432 13.3573 69.9253C13.3573 71.9075 11.7461 73.3333 9.8421 73.3333ZM9.8421 67.5227C8.50398 67.5227 7.47859 68.5877 7.47859 69.9253C7.47859 71.263 8.50398 72.3174 9.8421 72.3174C11.1797 72.3174 12.1951 71.263 12.1951 69.9253C12.1951 68.5877 11.1797 67.5227 9.8421 67.5227Z" fill="#8C4673"/>
<path d="M20.2395 66.7123C20.2395 66.6441 20.2982 66.5855 20.3568 66.5855H21.2158C21.2745 66.5855 21.3331 66.6441 21.3331 66.7123V70.6089C21.3331 71.3707 21.1186 72.0052 20.7081 72.4738C20.22 73.021 19.4582 73.3333 18.4819 73.3333C17.5151 73.3333 16.7534 73.021 16.2652 72.4738C15.8553 72.0052 15.6403 71.3707 15.6403 70.6089V66.7123C15.6403 66.6441 15.6889 66.5855 15.7575 66.5855H16.607C16.6752 66.5855 16.7338 66.6441 16.7338 66.7123V70.4916C16.7338 71.0675 16.8706 71.507 17.1443 71.8197C17.4565 72.1811 17.9056 72.347 18.4719 72.347C19.0578 72.347 19.5073 72.1811 19.8195 71.8197C20.1027 71.507 20.2395 71.0675 20.2395 70.4916L20.2395 66.7123Z" fill="#8C4673"/>
<path d="M28.6848 66.7123C28.6848 66.6441 28.7334 66.5855 28.8021 66.5855H29.6025C29.6711 66.5855 29.7298 66.6441 29.7298 66.7123V73.1183C29.7298 73.1869 29.6711 73.2356 29.6025 73.2356H28.8407C28.7435 73.2356 28.6944 73.216 28.6262 73.1088L24.925 68.3922V73.1183C24.925 73.1869 24.8764 73.2356 24.8078 73.2356H23.9974C23.9387 73.2356 23.8801 73.1869 23.8801 73.1183V66.7123C23.8801 66.6441 23.9387 66.5855 23.9974 66.5855H24.7591C24.8569 66.5855 24.9055 66.6151 24.9837 66.7123L28.6848 71.4389V66.7123Z" fill="#8C4673"/>
<path d="M36.8857 72.7569C36.2216 73.1278 35.4598 73.2356 34.7081 73.2356H32.4032C32.3446 73.2356 32.2859 73.1869 32.2859 73.1183V66.7123C32.2859 66.6441 32.3446 66.5855 32.4032 66.5855H34.8444C35.9089 66.5855 36.8661 66.8296 37.5983 67.6209C38.077 68.1381 38.3892 68.8899 38.3892 69.9158C38.3892 71.1457 37.9106 72.1811 36.8857 72.7569ZM33.38 72.3174H34.6199C35.1962 72.3174 35.733 72.2297 36.163 72.0052C36.9147 71.6243 37.2761 70.8725 37.2761 69.9158C37.2761 69.1635 37.0711 68.6168 36.7193 68.2359C36.2607 67.7382 35.5576 67.5132 34.6885 67.5132H33.38V72.3174Z" fill="#8C4673"/>
<path d="M41.1708 73.1088C41.1412 73.1965 41.0826 73.2356 40.9753 73.2356H40.1354C40.0572 73.2356 40.0281 73.1965 40.0281 73.1479C40.0281 73.1183 40.0376 73.0888 40.0477 73.0502L42.4498 66.6833C42.4793 66.5951 42.5375 66.556 42.6352 66.556H43.5338C43.6411 66.556 43.6902 66.5951 43.7293 66.6833L46.1018 73.0502C46.1118 73.0792 46.1314 73.1183 46.1314 73.1479C46.1314 73.1965 46.1018 73.2356 46.0141 73.2356H45.1546C45.0473 73.2356 44.9887 73.1965 44.9596 73.1088L44.4615 71.7416H41.6785L41.1708 73.1088ZM43.0747 67.8841L41.9516 70.8625H44.1878L43.0747 67.8841Z" fill="#8C4673"/>
<path d="M52.1159 66.5855C52.1841 66.5855 52.2332 66.6441 52.2332 66.7123V67.435C52.2332 67.5036 52.1841 67.5523 52.1159 67.5523H50.0065V73.1183C50.0065 73.1869 49.9479 73.2356 49.8797 73.2356H49.0302C48.9616 73.2356 48.913 73.1869 48.913 73.1183V67.5523H46.794C46.7254 67.5523 46.6767 67.5036 46.6767 67.435V66.7123C46.6767 66.6441 46.7253 66.5855 46.794 66.5855H52.1159Z" fill="#8C4673"/>
<path d="M55.132 66.5855C55.1907 66.5855 55.2493 66.6441 55.2493 66.7123V73.1183C55.2493 73.1869 55.1907 73.2356 55.132 73.2356H54.2726C54.2139 73.2356 54.1553 73.1869 54.1553 73.1183V66.7123C54.1553 66.6441 54.2139 66.5855 54.2726 66.5855H55.132Z" fill="#8C4673"/>
<path d="M61.0585 73.3333C59.1446 73.3333 57.5428 71.8979 57.5428 69.9253C57.5428 67.9432 59.1446 66.4978 61.0585 66.4978C62.9625 66.4978 64.5738 67.9432 64.5738 69.9253C64.5738 71.9075 62.9625 73.3333 61.0585 73.3333ZM61.0585 67.5227C59.7204 67.5227 58.695 68.5877 58.695 69.9253C58.695 71.263 59.7204 72.3174 61.0585 72.3174C62.3962 72.3174 63.4115 71.263 63.4115 69.9253C63.4115 68.5877 62.3962 67.5227 61.0585 67.5227Z" fill="#8C4673"/>
<path d="M71.6714 66.7123C71.6714 66.6441 71.72 66.5855 71.7887 66.5855H72.5891C72.6577 66.5855 72.7163 66.6441 72.7163 66.7123V73.1183C72.7163 73.1869 72.6577 73.2356 72.5891 73.2356H71.8273C71.73 73.2356 71.6809 73.216 71.6128 73.1088L67.9116 68.3922V73.1183C67.9116 73.1869 67.863 73.2356 67.7943 73.2356H66.9839C66.9253 73.2356 66.8667 73.1869 66.8667 73.1183V66.7123C66.8667 66.6441 66.9253 66.5855 66.9839 66.5855H67.7457C67.8434 66.5855 67.8921 66.6151 67.9702 66.7123L71.6714 71.4389V66.7123Z" fill="#8C4673"/>
<path d="M67.2788 36.3204C67.278 36.323 67.2776 36.3222 67.2769 36.3245C67.2869 36.5339 67.2977 36.7433 67.3069 36.9527C67.3083 36.7436 67.302 36.5333 67.2788 36.3204Z" fill="#8C4673"/>
<path d="M70.0555 4.49387C69.802 3.03034 68.5481 1.70913 67.2559 1.19842C66.7479 0.99759 66.2136 0.857735 65.6878 0.71754C65.3421 0.625388 64.9917 0.550626 64.6501 0.444814C64.0183 0.249198 63.3743 0.112881 62.7231 0.0215913C62.368 -0.0281987 62.0041 0.000737071 61.6786 0.18663C61.0978 0.518375 60.6712 1.0095 60.3652 1.61577C60.3262 1.69317 60.2934 1.78303 60.2892 1.86879C60.2723 2.20875 60.26 2.54944 60.2627 2.88968C60.2638 3.03292 60.3062 3.17586 60.3298 3.31894C60.3593 3.47856 60.378 3.64141 60.4211 3.79743C60.5282 4.18431 60.8142 4.50883 60.9335 4.88597C61.182 5.67237 61.0363 6.79711 61.0088 7.62212C61.0088 7.62215 60.9234 10.1802 60.9234 10.1802C60.8336 12.7151 60.7803 15.2514 60.7772 17.7879C60.772 21.9363 60.8913 26.0879 61.2199 30.2246C61.4889 33.6126 62.815 42.7506 63.0714 42.6713C63.1285 42.7895 63.5291 42.8839 64.0207 42.8085C63.9493 42.7889 64.7583 43.2553 65.2258 43.3333C65.2792 43.2761 65.3372 43.2138 65.3739 43.1744C65.4568 43.1597 65.512 43.1499 65.5605 43.1413C65.5826 43.039 65.6009 42.9543 65.6168 42.8806C65.7106 42.8097 65.7922 42.7481 65.8711 42.6883L65.8813 42.1045C65.9604 42.0549 66.0347 42.0085 66.1186 41.9559C66.1461 41.8796 66.1919 41.7987 66.2017 41.7138C66.215 41.5982 66.2004 41.4795 66.1987 41.3621C66.1972 41.2622 66.1635 41.1496 66.3229 41.0926C66.4927 41.3121 66.454 41.666 66.782 41.8286C66.9079 41.8006 67.0607 41.7666 67.2061 41.7342C67.2586 41.3969 67.3091 41.092 67.3517 40.7861C67.3637 40.6995 67.3617 40.6086 67.3506 40.5216C67.2756 39.9341 67.256 39.3411 67.246 38.7467C67.2058 38.7981 67.1663 38.8483 67.1388 38.8753C67.137 38.6483 67.1264 38.2633 67.1246 38.0363C67.1023 37.8952 67.0885 37.7102 67.0836 37.5684C67.072 37.2364 67.145 36.9239 67.1332 36.5918C67.1287 36.4634 67.089 36.3363 67.0654 36.2085C67.1107 35.9782 67.032 35.7291 67.1721 35.5132C67.1951 35.5835 67.2275 35.6532 67.241 35.724C67.2451 35.6287 67.2498 35.537 67.2541 35.4641C67.3582 35.5527 67.3268 35.6055 67.3349 35.7434C67.3643 36.2483 67.3841 36.7532 67.4071 37.2579C67.4315 37.6709 67.4558 38.084 67.4802 38.4971C67.5671 39.1692 67.6541 39.8413 67.7398 40.5042C67.8547 40.6043 67.9541 40.6909 68.0377 40.7638C68.1288 41.0409 68.0759 41.358 68.4008 41.5265C68.5546 41.4578 68.7138 41.3866 68.8514 41.3252C69.0237 40.8869 68.9177 40.4702 68.9376 40.0354C68.9526 39.1769 68.9676 38.3185 68.9831 37.4598C69.0691 37.746 69.1599 38.0439 69.297 38.3091C69.4987 38.1211 69.5696 37.7878 69.5504 37.5179C69.6155 37.5558 69.6525 37.5914 69.725 37.5726C69.832 37.5449 69.7295 36.328 69.7189 36.2373C68.5933 26.5993 68.6273 17.151 70.0187 7.49778C70.1667 6.47144 70.2224 5.4579 70.0555 4.49387ZM62.8418 12.2365C63.0233 12.688 62.9825 13.1423 62.9826 13.591C62.9828 13.9251 62.9211 14.26 62.8758 14.593C62.8646 14.6756 62.8103 14.7523 62.7328 14.8246C62.7691 13.9619 62.8055 13.0992 62.8418 12.2365ZM62.7908 15.9252C62.913 16.5561 62.9198 17.1926 62.8434 17.831C62.7781 17.1984 62.662 16.5682 62.7908 15.9252ZM62.9619 22.0293C62.852 21.5622 62.8287 21.1424 62.8503 20.7186C62.7362 19.7817 62.7354 19.3181 62.8491 19.0548C62.9976 19.075 62.956 19.199 62.9785 19.287C63.0004 19.4313 63.0382 19.5753 63.0409 19.72C63.0469 20.0445 63.0305 20.3692 63.0328 20.6938C63.0346 20.9569 63.0503 21.2198 63.1015 21.4827C63.0595 21.6473 63.0174 21.8118 62.9619 22.0293ZM66.9577 18.6916C66.9715 18.8787 66.9855 18.9927 66.9874 19.107C66.9927 19.4439 66.983 19.7812 66.9981 20.1176C67.021 20.6308 67.0619 21.1432 67.0898 21.6562C67.0943 21.7393 67.071 21.8239 67.0501 21.9916C66.9783 21.883 66.9305 21.8436 66.9277 21.8014C66.8896 21.2299 66.8512 20.6583 66.8269 20.0862C66.8133 19.7641 66.8247 19.441 66.8264 19.1184C66.8271 18.9922 66.7883 18.8565 66.9577 18.6916ZM66.885 23.1637C67.0305 23.3945 66.9575 23.5614 66.9776 23.7883C66.8514 23.6198 66.8206 23.4116 66.885 23.1637ZM66.8799 25.1594C66.9312 25.1623 66.9825 25.1651 67.0338 25.168C67.0333 25.4126 67.1107 25.6611 66.989 25.9475C66.9329 25.8711 66.8678 25.8231 66.8663 25.7732C66.8603 25.5689 66.8737 25.3641 66.8799 25.1594ZM67.1539 33.9495C67.1082 33.8426 67.0726 33.7955 67.0697 33.7464C67.0479 33.3794 67.0374 33.0117 67.013 32.6449C67.0024 32.4859 66.9673 32.3284 66.9434 32.1702C66.9538 32.1139 66.9643 32.0576 66.9739 32.0055C67.0793 31.9698 67.1283 32.0238 67.1337 32.1022C67.1597 32.4762 67.1831 32.8506 67.1964 33.2253C67.2022 33.3873 67.2083 33.5444 67.3013 33.6848C67.2621 33.7553 67.2228 33.8257 67.1539 33.9495Z" fill="#8C4673"/>
<path d="M24.6607 7.64816C24.8086 6.62187 24.8644 5.60831 24.6974 4.64431C24.444 3.18073 23.1901 1.85956 21.8979 1.34883C21.3898 1.14803 20.8556 1.00814 20.3297 0.867971C19.9841 0.775792 19.6336 0.701057 19.292 0.595245C18.6602 0.399629 18.0162 0.263295 17.365 0.171977C17.01 0.122187 16.646 0.151148 16.3206 0.337066C15.7398 0.66876 15.3132 1.15989 15.0072 1.76621C14.9681 1.84361 14.9354 1.93346 14.9311 2.01917C14.9142 2.35918 14.9019 2.69979 14.9046 3.04006C14.9057 3.18336 14.9481 3.32624 14.9718 3.46933C15.0013 3.62897 15.02 3.79179 15.063 3.94781C15.1702 4.33469 15.4562 4.65921 15.5754 5.0364C15.824 5.82275 15.6782 6.94749 15.6507 7.77255L15.5653 10.3306C15.4756 12.8645 15.4223 15.3998 15.4191 17.9353C15.4116 23.9736 15.9207 29.9669 16.356 35.982C16.399 36.5766 16.45 37.171 16.4784 37.7663C16.4963 38.1394 16.5196 38.5081 16.6047 38.8747C16.6618 39.1206 16.6777 39.3763 16.7045 39.6284C16.7691 40.237 16.8646 40.8362 17.088 41.4149C17.2434 41.8174 17.3485 42.2386 17.5043 42.7431C17.7804 43.0349 18.2244 43.2079 18.6266 43.3333C19.0607 43.2732 19.4294 43.2222 19.781 43.1735C19.9854 42.9008 19.8457 42.5426 20.0478 42.283C20.2838 42.3559 20.3283 42.5191 20.3166 42.7088C20.3076 42.8553 20.2565 43.0024 20.344 43.1623C20.3901 43.1737 20.4454 43.1874 20.5167 43.2051C20.5994 43.0948 20.6786 42.9892 20.7411 42.9059C20.7874 42.582 20.8293 42.2894 20.8633 42.052C21.0631 41.8495 21.2147 42.0668 21.3702 42.023C21.5542 41.8318 21.3852 41.535 21.5943 41.3626C21.8056 41.4263 22.0124 41.4051 22.2148 41.299C22.3005 40.8912 22.3922 40.4549 22.4862 40.0078C22.5979 39.9235 22.7177 39.8329 22.8107 39.7627C22.9155 39.5957 22.9324 38.8478 22.9384 38.6866C22.9631 38.0208 23.2649 38.4724 23.5614 38.5438C23.5614 38.5438 24.0544 38.2508 24.0519 38.1226C23.9921 34.9471 23.8355 31.777 23.72 28.6067C23.5935 25.1329 23.5165 21.6587 23.6706 18.1766C23.8265 14.6534 24.1576 11.1384 24.6607 7.64816ZM16.6548 14.7554C16.5753 13.8522 16.5895 12.9556 16.7237 12.0195C16.841 12.8052 16.8276 13.6909 16.6548 14.7554ZM22.7213 37.6345C22.6829 37.5484 22.6394 37.4887 22.6303 37.4243C22.5424 36.8079 22.3922 36.1982 22.4157 35.5695C22.4077 35.5454 22.3997 35.5213 22.3917 35.4972C22.3739 35.2053 22.3514 34.9135 22.3398 34.6213C22.3334 34.4599 22.3451 34.2979 22.3487 34.1362C22.2829 33.9365 22.2935 33.7544 22.3804 33.5898C22.4993 33.7819 22.4575 33.9651 22.4419 34.1444C22.5899 34.7308 22.7319 35.3107 22.655 35.9313C22.6142 36.2603 22.6695 36.6088 22.7819 36.937C22.8774 37.2161 22.8624 37.342 22.7213 37.6345ZM22.7312 18.1908C22.915 18.5081 22.8282 18.7445 22.583 19.1017C22.4927 18.7345 22.408 18.4929 22.7312 18.1908ZM22.7079 17.8787C22.519 17.7366 22.5607 17.5724 22.623 17.3972C22.8215 17.5674 22.8498 17.7279 22.7079 17.8787ZM23.1613 15.0121C22.9055 14.7507 22.8289 14.5527 23.0716 14.3242C23.1946 14.5224 23.2811 14.716 23.1613 15.0121Z" fill="#8C4673"/>
<path d="M54.0975 37.5504C53.6695 31.5998 53.6139 24.5211 53.8964 20.7866C53.9601 19.9453 54.0205 18.2823 53.2783 17.6332C52.3094 16.7858 50.5084 16.7638 49.295 16.4373C48.0646 16.1062 46.5285 15.8753 45.813 17.0185C45.5875 17.379 45.5356 17.8391 45.56 18.3247C44.8031 21.9068 46.2158 34.3863 47.0602 40.2732C47.0883 40.7273 47.1157 41.1814 47.1458 41.6354C47.1778 42.1178 47.3725 42.5686 47.4347 43.0445C47.4437 43.1128 47.4977 43.176 47.5252 43.2305C47.714 43.2669 47.8902 43.301 48.0576 43.3333C48.2767 43.1014 48.2771 42.8477 48.2139 42.5819C48.1891 42.4776 48.0759 41.6376 48.176 41.5043C48.3464 41.6682 48.4902 42.5811 48.5693 42.7659C48.6399 42.931 48.718 43.0897 48.9146 43.1543C48.956 43.1679 49.0024 43.1678 49.0411 43.1733C49.1108 43.1067 49.1732 43.047 49.2296 42.9931C49.3059 43.0142 49.3649 43.0305 49.4332 43.0493C49.5118 42.9614 49.2338 42.577 49.324 42.4761C49.5578 42.4778 49.825 42.2633 49.9675 42.1001C50.113 41.9336 50.6 42.4033 50.7738 42.3599C50.8308 42.2445 50.8888 42.1268 50.9421 42.0187C50.9112 41.8164 50.8827 41.6296 50.8557 41.4531C50.9122 41.3209 51.2542 41.656 51.3108 41.5234C51.4437 41.5545 51.2843 41.1296 51.4248 41.1624C51.5998 41.0048 51.7644 40.8566 51.9059 40.7292C51.9216 40.5563 51.9222 40.3544 51.9293 40.2758C52.1411 40.1789 52.3248 40.1744 52.4961 40.096C52.5761 40.1514 52.6553 40.2061 52.7523 40.2732C52.8674 40.0944 52.9624 39.9467 53.05 39.8106C53.0229 39.585 52.9907 39.3835 52.9762 39.1808C52.9583 38.9297 53.0275 39.1913 53.2124 38.9907C53.2655 38.9331 53.3057 39.3787 53.4131 39.3164C53.4653 39.4751 53.5082 38.6137 53.5495 38.7363C53.5821 38.8328 53.6046 38.9348 53.6552 39.0224C53.684 39.0724 53.7601 39.0983 53.8295 39.1448C53.9534 38.8884 53.9018 38.6551 53.9123 38.4354C54.1271 38.0107 54.1306 38.0104 54.0975 37.5504ZM47.9095 38.2522C47.8677 37.9993 47.8453 37.7435 47.821 37.4882C47.8197 37.4746 47.862 37.4574 47.9111 37.4228C47.9809 37.7293 48.048 38.0235 48.1415 38.4342C48.0079 38.3327 47.9172 38.2984 47.9095 38.2522ZM48.0562 40.4303C48.0303 40.1796 47.8782 39.9487 47.9866 39.6669C48.081 39.6984 48.1545 39.7229 48.2571 39.7572C48.153 39.9917 48.2988 40.2501 48.0562 40.4303ZM49.9931 29.5311C50.0644 29.9208 50.2696 30.2883 50.2394 30.7346C50.0541 30.502 49.9256 29.9204 49.9931 29.5311ZM50.2623 31.8104C50.1705 31.5974 50.0918 31.3862 50.1569 31.1464C50.3361 31.2504 50.3757 31.4696 50.2623 31.8104ZM52.6176 29.5952C52.4878 29.4026 52.5091 29.2311 52.5501 28.9889C52.626 29.0782 52.6875 29.1186 52.6969 29.1677C52.7226 29.302 52.7434 29.443 52.6176 29.5952ZM52.7715 28.5563C52.7515 28.5871 52.7239 28.6141 52.6854 28.6356C52.6619 28.6493 52.6384 28.663 52.6028 28.6837C52.5214 28.6091 52.5223 28.5162 52.529 28.4215C52.5239 28.4054 52.5212 28.389 52.5206 28.3722C52.5079 28.2823 52.4951 28.1923 52.4824 28.1023C52.484 28.0681 52.4856 28.0338 52.4871 27.9996C52.4863 27.9098 52.4855 27.8201 52.4847 27.7303C52.4755 27.5852 52.4611 27.4401 52.4594 27.2949C52.4586 27.2275 52.4824 27.1599 52.495 27.0924C52.4961 27.0257 52.4973 26.9589 52.4991 26.854C52.5676 26.9048 52.6167 26.9256 52.6388 26.9611C52.6746 27.0189 52.6928 27.0863 52.7185 27.1497C52.7864 27.2655 52.772 27.3927 52.777 27.5172C52.7948 27.5892 52.8127 27.6613 52.8305 27.7333C52.8331 27.7338 52.835 27.735 52.8376 27.7355C52.7976 27.9313 52.7576 28.1271 52.7176 28.3229C52.7356 28.4007 52.7535 28.4785 52.7715 28.5563ZM53.3961 37.0138C53.3937 37.1556 53.3912 37.2974 53.3874 37.5188C53.3063 37.4088 53.2475 37.3629 53.2387 37.3098C53.2222 37.2109 53.2347 37.1076 53.2351 37.0061C53.2253 36.5922 53.122 36.18 53.1836 35.7228C53.3546 36.0347 53.4335 36.554 53.3961 37.0138Z" fill="#8C4673"/>
<path d="M54.837 7.57793C54.8107 7.50196 54.7874 7.43454 54.7531 7.33536C54.4924 7.39242 54.2435 7.4469 53.9802 7.50454C53.7699 7.27549 53.8322 7.0361 53.9702 6.77742C53.8388 6.49733 53.8138 6.16955 53.6356 5.91438C53.1692 5.76164 52.7316 5.61835 52.3046 5.47851C52.1768 5.2874 52.1347 5.04328 51.852 5.00136C51.7832 5.01897 51.7132 5.0369 51.6647 5.04931C51.3596 4.78889 51.3976 4.36348 51.0672 4.16344C50.9626 4.19388 50.8771 4.21877 50.8318 4.23196C50.556 4.17731 50.6993 3.94197 50.5551 3.81316C50.4102 3.88433 50.2645 3.95588 50.1223 4.02569C49.9957 3.97175 50.1233 3.78223 49.9503 3.75336C49.8005 3.87748 49.6531 3.99952 49.5025 4.12427C49.361 4.02802 49.2415 3.94672 49.1346 3.87396C48.9176 3.94355 48.8026 4.0785 48.6932 4.22069C48.3313 4.69099 47.9848 5.17295 47.6 5.62617C47.3399 5.93247 47.1712 6.25622 47.1459 6.66563C47.2292 6.7027 47.318 6.74223 47.4289 6.79163C47.3859 6.87263 47.3695 6.95416 47.3172 6.99381C46.9204 7.29404 46.7865 7.69306 46.8016 8.15316C46.8642 8.28197 46.9273 8.41151 46.9803 8.5205C46.8604 8.86185 46.5069 8.85527 46.2819 9.01774C46.1866 9.24332 46.2113 9.46566 46.3056 9.68033C46.7335 9.9897 46.7572 9.98911 47.2305 10.051C47.438 10.0781 47.6286 10.0314 47.8266 10.0075C47.9617 9.99118 48.0993 9.99257 48.2207 9.98674C48.2828 10.0873 48.3281 10.1605 48.3704 10.2291C48.5375 10.2905 48.6932 10.3477 48.785 10.3815C49.473 10.3734 49.8927 9.94557 50.3752 9.7012L50.7866 9.70841C50.771 9.81697 50.7574 9.91085 50.7421 10.017C50.8095 10.0467 50.8776 10.0767 50.933 10.1012C51.1412 10.0292 51.3264 9.95534 51.5187 9.90494C51.5768 9.88973 51.6544 9.93967 51.723 9.95976C51.7218 10.0286 51.7206 10.0975 51.719 10.1902C51.7841 10.2293 51.867 10.2791 51.9691 10.3405C52.054 10.2717 52.1289 10.211 52.2038 10.1503C53.1059 9.53908 53.9339 8.84956 54.7025 8.11273C54.6803 8.01334 54.6652 7.94557 54.649 7.873C54.7105 7.77644 54.7728 7.67867 54.837 7.57793Z" fill="#8C4673"/>
<path d="M9.79318 4.55373C9.53969 3.09015 8.2858 1.76898 6.99366 1.25825C6.4856 1.05745 5.95134 0.917569 5.4255 0.777399C5.07985 0.685221 4.72939 0.610486 4.38778 0.504674C3.75599 0.309031 3.11196 0.172719 2.46081 0.0814004C2.10571 0.0316104 1.74181 0.060572 1.41634 0.24649C0.83549 0.578184 0.408971 1.06928 0.102939 1.67563C0.0638578 1.75303 0.0311357 1.84289 0.026854 1.9286C0.0099857 2.26861 -0.00228697 2.60922 0.000359694 2.94946C0.00147636 3.09279 0.043877 3.23567 0.0675187 3.37876C0.0970504 3.5384 0.115732 3.70122 0.158784 3.85724C0.265959 4.24412 0.551933 4.56864 0.671174 4.94583C0.919726 5.73218 0.774016 6.85692 0.746456 7.68196L0.661106 10.24C0.571318 12.775 0.518016 15.3112 0.514876 17.8478C0.510153 21.661 0.692842 25.5483 0.866009 29.3882C1.04278 33.3085 1.07631 37.2492 1.74409 41.1269C1.85835 41.7904 2.06128 42.415 2.37489 42.9772C2.65409 43.2844 3.01147 43.2714 3.35677 43.3333C3.4162 43.1924 3.46641 43.0733 3.49307 43.01C3.8475 42.7117 4.18152 42.9637 4.48177 42.9443C4.66565 42.7587 4.61622 42.5341 4.67487 42.3147C4.87837 42.25 5.05667 42.1283 5.17685 41.89C5.17817 41.8149 5.17859 41.712 5.18222 41.6092C5.18482 41.5355 5.18723 41.459 5.30138 41.4454C5.45919 41.6074 5.57509 41.8893 5.90146 41.7269C6.01933 41.5026 6.10844 41.2746 6.07758 41.0099C6.05952 40.8547 6.07208 40.8532 6.18748 40.6229C6.31467 40.7755 6.30063 40.9563 6.30592 41.1303C6.31205 41.3312 6.34882 41.5138 6.56602 41.6346C6.64354 41.632 6.74259 41.6288 6.82176 41.6262C6.95919 41.4709 6.9626 41.3089 6.96888 41.1451C6.97565 40.9683 6.99078 40.7918 7.00689 40.6156C7.00886 40.594 7.0393 40.575 7.05895 40.552C7.17092 40.5605 7.285 40.5693 7.38141 40.5767C7.68303 40.2858 7.40365 39.9635 7.48451 39.6448C7.75994 39.4423 7.60894 39.0824 7.73163 38.8045C7.86497 38.7785 7.99074 38.7538 8.12584 38.7274C8.1507 38.6077 8.1713 38.5084 8.19188 38.4092C8.1609 38.1749 8.12991 37.9406 8.09893 37.7063C8.07973 37.6211 8.05056 37.5368 8.04293 37.4505C7.9937 36.8948 7.94718 36.3387 7.9048 35.7824C7.89668 35.6755 7.91079 35.567 7.94756 35.4585C8.17611 36.0421 8.11954 36.662 8.20707 37.2614C8.24109 37.6403 8.21543 38.0239 8.29792 38.399C8.43925 38.6053 8.60673 38.7441 8.90186 38.6351C8.90459 38.4788 8.91518 38.3337 8.90825 38.1895C8.87425 37.4816 8.83514 36.7741 8.7992 36.0663C8.79547 35.9927 8.8007 35.9186 8.80166 35.8447C8.80571 35.5357 8.83135 35.2246 8.80857 34.9184C8.39425 29.3475 8.93127 14.1871 9.42022 10.1054C9.5221 9.25481 9.63423 8.40545 9.75646 7.55758C9.90437 6.5313 9.96011 5.51774 9.79318 4.55373ZM2.27135 21.1705C2.26245 21.4504 2.24721 21.7303 2.24298 22.0103C2.23593 22.4815 2.23632 22.9528 2.23159 23.4241C2.23022 23.5631 2.22212 23.7021 2.21628 23.8642C2.16021 23.8529 2.1403 23.8488 2.1226 23.8452C2.02934 23.5389 2.01784 22.2191 2.09769 21.0324C2.11197 21.0203 2.13296 21.0024 2.16695 20.9735C2.1656 20.9487 2.16337 20.9083 2.16088 20.8631C2.19031 20.8575 2.21758 20.8523 2.24058 20.848C2.25547 20.8642 2.27247 20.8741 2.27262 20.8843C2.27395 20.9796 2.27438 21.0751 2.27135 21.1705ZM3.00115 20.0832C2.85154 19.7067 2.84215 19.1084 2.95753 18.4991C3.00063 18.9924 3.03771 19.3825 3.06595 19.7731C3.07088 19.8412 3.03846 19.912 3.00115 20.0832ZM5.77407 29.8595C5.64468 29.5683 5.68553 29.277 5.73198 28.9792C5.77988 28.9926 5.8247 28.9955 5.82711 29.0072C5.8861 29.2929 5.88137 29.5772 5.77407 29.8595ZM6.08631 25.2868C6.00781 25.0281 5.94073 24.7689 5.97213 24.4986C5.9775 24.4522 6.03624 24.412 6.08783 24.347C6.24558 24.6823 6.14776 24.9835 6.08631 25.2868ZM7.58984 33.4256C7.52689 33.4542 7.47711 33.4767 7.40445 33.5097C7.37417 33.3949 7.32803 33.2988 7.32652 33.202C7.31331 32.3581 7.15286 31.5203 7.19659 30.617C7.31733 30.69 7.39573 30.7374 7.4564 30.7741C7.60782 31.3624 7.67657 32.7106 7.58984 33.4256Z" fill="#8C4673"/>
<path d="M39.6017 4.53548C39.3482 3.07196 38.0943 1.75076 36.8022 1.24006C36.2941 1.0392 35.7599 0.899374 35.234 0.759152C34.8884 0.667027 34.5379 0.592233 34.1963 0.486422C33.5645 0.290805 32.9205 0.154521 32.2693 0.0632293C31.9142 0.0134126 31.5503 0.0423762 31.2249 0.228243C30.644 0.560015 30.2175 1.05111 29.9115 1.65739C29.8724 1.73478 29.8396 1.82464 29.8354 1.91043C29.8185 2.25036 29.8062 2.59105 29.8089 2.93129C29.81 3.07456 29.8524 3.21749 29.8761 3.36056C29.9056 3.5202 29.9243 3.68302 29.9673 3.83907C30.0745 4.22592 30.3605 4.55047 30.4797 4.92758C30.7282 5.71401 30.5825 6.83872 30.555 7.66373C30.555 7.66379 30.4696 10.2218 30.4696 10.2218C30.3798 12.7567 30.3265 15.293 30.3234 17.8296C30.3184 21.8554 30.4324 25.8842 30.7393 29.8996C30.7393 29.8996 31.4163 36.3766 32.106 39.255C32.3164 40.1332 32.6526 42.4407 33.36 43.0204C33.7222 43.3173 34.1051 43.3828 34.5527 43.3007C34.7609 43.1076 34.9946 42.8906 35.2365 42.6662C35.4225 42.6501 35.5847 42.5751 35.6672 42.3746C35.6853 42.2124 35.7032 42.0513 35.7218 41.8845C35.8355 41.8359 35.9388 41.7918 36.0426 41.7475C36.0958 41.6045 36.1458 41.4698 36.1928 41.3432C36.453 41.3339 36.6968 41.3405 36.9101 41.1246C36.9527 40.9653 37.0016 40.7824 37.0322 40.6679C37.2231 40.5123 37.3654 40.3963 37.4981 40.2882C37.5372 39.9336 37.573 39.6099 37.6082 39.2916C37.6725 39.1868 37.7335 39.0872 37.7957 38.9857L37.8043 38.4906C37.8801 38.2405 37.9292 38.0711 37.9832 37.9032C38.0145 37.8056 38.0534 37.7107 38.0888 37.6145C38.074 37.3503 38.0575 37.0862 38.045 36.8218C38.0353 36.6186 38.0308 36.4152 38.0902 36.1962C38.1188 36.2644 38.1635 36.3304 38.1726 36.4014C38.1912 36.547 38.1886 36.6955 38.1984 36.8424C38.2159 37.1062 38.2361 37.37 38.2552 37.6337C38.3084 37.7497 38.3616 37.8657 38.4052 37.9605C38.7385 38.0257 38.9391 37.8863 39.1055 37.6528C39.1103 37.3812 39.1231 37.1145 39.118 36.8481C39.0783 34.7384 38.634 28.9255 38.634 28.9255C38.2465 21.8019 38.5289 14.7274 39.565 7.53939C39.7129 6.51305 39.7686 5.49957 39.6017 4.53548ZM31.6534 14.3969C31.5801 14.1801 31.5595 13.9682 31.5917 13.7612C31.5914 13.7609 31.5911 13.7604 31.5908 13.7601C31.591 13.7595 31.591 13.7589 31.5912 13.7583C31.4692 13.6198 31.4415 13.4449 31.4086 13.2688C31.3183 12.7843 31.3588 12.3002 31.403 11.8125C31.463 12.0514 31.5644 12.2748 31.5571 12.5313C31.5524 12.6924 31.5804 12.8591 31.621 13.0156C31.687 13.2698 31.6712 13.5137 31.5912 13.7583C31.5915 13.7586 31.5917 13.759 31.592 13.7593C31.5919 13.76 31.5918 13.7605 31.5917 13.7612C31.637 13.8162 31.6823 13.8712 31.7371 13.9377C31.7105 14.0836 31.6844 14.2265 31.6534 14.3969ZM34.7553 18.5244C34.9065 18.9906 34.9384 19.5737 34.8478 19.8275C34.6895 19.5331 34.6466 19.0547 34.7553 18.5244ZM35.0098 22.0493C34.8238 21.5102 34.7676 20.6943 34.8607 20.2421C35.0177 20.4998 35.0513 20.8737 35.0098 22.0493ZM37.617 13.5027C37.6173 13.4466 37.6176 13.3904 37.6179 13.3343C37.7423 13.0764 37.6934 12.7983 37.7061 12.5274C37.7244 12.3662 37.7409 12.2048 37.7636 12.0443C37.7664 12.0246 37.8023 12.0099 37.8439 11.9754C37.9235 12.1468 37.8903 12.3227 37.8919 12.4905C37.8938 12.683 37.8777 12.8756 37.8725 13.0682C37.8677 13.2461 37.867 13.4241 37.8645 13.602C37.7888 13.8933 37.822 14.1898 37.8154 14.4856C37.8048 14.9603 37.7647 15.4343 37.7369 15.9085C37.7291 16.042 37.7254 16.176 37.71 16.3086C37.704 16.3606 37.6709 16.4093 37.6403 16.4831C37.5439 16.1873 37.5387 14.9827 37.617 13.5027ZM37.5567 17.1808C37.6632 17.175 37.6646 17.2512 37.6614 17.3005C37.6456 17.5463 37.6205 17.7914 37.5986 18.0368C37.5312 17.7493 37.5326 17.465 37.5567 17.1808ZM37.5503 18.803C37.5697 18.908 37.647 21.1581 37.6304 21.2986C37.6259 21.3366 37.596 21.3715 37.5427 21.4776C37.4412 20.9801 37.4547 19.5127 37.5503 18.803ZM37.4018 31.9082C37.3546 31.8979 37.3021 31.8864 37.2495 31.8749C37.2092 31.3487 37.1408 30.8245 37.1695 30.2938C37.1789 30.1205 37.1616 29.9456 37.1556 29.742C37.4738 30.0874 37.5918 30.9159 37.4089 31.3904C37.5235 31.7471 37.5972 32.1182 37.5663 32.505C37.513 32.3115 37.4597 32.1181 37.4018 31.9082ZM37.7755 35.4463C37.7241 35.4151 37.6854 35.4057 37.6797 35.3859C37.6474 35.274 37.6034 35.1603 37.5992 35.0458C37.5734 34.3498 37.5574 33.6534 37.5381 32.9571C37.5906 32.9686 37.6431 32.9801 37.6904 32.9904C37.7482 33.2002 37.8015 33.3937 37.8548 33.5872C37.8826 34.1489 37.9103 34.7107 37.9389 35.2888C37.883 35.3427 37.8258 35.3978 37.7755 35.4463Z" fill="#8C4673"/>
<path d="M84.951 4.53911C84.6975 3.07563 83.4436 1.75436 82.1514 1.24368C81.6434 1.04283 81.1091 0.903001 80.5833 0.762752C80.2376 0.670652 79.8872 0.595862 79.5456 0.490052C78.9138 0.294409 78.2697 0.158124 77.6186 0.0668855C77.2635 0.0170955 76.8996 0.046002 76.5741 0.231869C75.9933 0.563665 75.5667 1.05477 75.2607 1.66101C75.2217 1.73841 75.1889 1.82827 75.1846 1.91408C75.1678 2.25399 75.1555 2.5947 75.1581 2.93495C75.1593 3.07817 75.2017 3.22115 75.2253 3.36424C75.2548 3.52383 75.2735 3.68671 75.3166 3.84267C75.4237 4.2296 75.7097 4.55413 75.829 4.93126C76.0775 5.71761 75.9318 6.84235 75.9042 7.66733C75.9042 7.66744 75.8189 10.2255 75.8189 10.2255C75.7291 12.7604 75.6758 15.2967 75.6726 17.8332C75.665 24.5669 75.9569 31.2392 76.9925 37.8984C77.1811 39.1114 78.3971 44.0571 79.6285 43.2435C79.7478 43.1647 80.1101 42.5865 80.0505 42.6055C80.2554 42.5402 80.4348 42.4174 80.5558 42.1772C80.5571 42.1014 80.5575 41.9975 80.5612 41.8939C80.5638 41.8195 80.5663 41.7423 80.6812 41.7286C80.8401 41.8921 80.9568 42.1763 81.2854 42.0126C81.4041 41.7863 81.4939 41.5563 81.4628 41.2893C81.4446 41.1328 81.4573 41.1313 81.5735 40.8989C81.7016 41.0528 81.6874 41.2352 81.6927 41.4108C81.6989 41.6133 81.7359 41.7976 81.9546 41.9195C82.0327 41.9169 82.1324 41.9136 82.2122 41.911C82.3505 41.7543 82.354 41.5909 82.3603 41.4257C82.3671 41.2474 82.3824 41.0693 82.3986 40.8916C82.4006 40.8698 82.4313 40.8506 82.451 40.8274C82.5638 40.836 82.6786 40.8449 82.7757 40.8523C83.1994 40.4429 83.3868 39.5805 83.4498 38.6577C83.5237 37.575 83.4263 36.4091 83.3382 35.7945C83.459 36.6372 83.5797 37.4799 83.7005 38.3227C83.7487 38.659 84.0594 39.1046 84.3079 38.8733C84.4131 38.7755 84.2737 37.8954 84.2676 37.7293C84.251 37.2795 84.2336 36.8296 84.2157 36.3798C84.1814 35.5168 84.1452 34.6538 84.1094 33.7908C84.0431 32.193 83.3421 15.5234 84.9142 7.54307C85.1146 6.52576 85.1179 5.50317 84.951 4.53911ZM76.8982 18.971C76.8891 19.317 76.8749 19.663 76.8694 20.009C76.8601 20.5914 76.8568 21.1738 76.8494 21.7562C76.8472 21.928 76.8398 22.0998 76.8339 22.3001C76.79 22.2866 76.7744 22.2817 76.7605 22.2774C76.6898 21.8997 76.6911 20.2688 76.7631 18.8018C76.7744 18.7867 76.791 18.7645 76.8179 18.7284C76.817 18.6979 76.8156 18.6479 76.814 18.592C76.8371 18.5849 76.8585 18.5784 76.8766 18.5728C76.8882 18.5927 76.9014 18.6048 76.9015 18.6173C76.9018 18.7352 76.9014 18.8532 76.8982 18.971ZM79.9224 23.3142C79.7718 22.9344 79.7623 22.3309 79.8785 21.7162C79.9219 22.2139 79.9593 22.6074 79.9877 23.0014C79.9926 23.0701 79.96 23.1415 79.9224 23.3142ZM82.4463 25.5493C82.4517 25.5025 82.5108 25.4621 82.5628 25.3964C82.7216 25.7346 82.6231 26.0385 82.5612 26.3444C82.4822 26.0834 82.4147 25.822 82.4463 25.5493ZM82.6861 29.5656C82.6337 29.2056 82.5542 28.8431 82.6268 28.3787C82.6964 28.5078 82.7488 28.561 82.7509 28.6161C82.763 28.928 82.7634 29.2403 82.7659 29.5526C82.766 29.5633 82.7483 29.5805 82.7364 29.5832C82.7243 29.586 82.709 29.5744 82.6861 29.5656ZM82.8315 31.2725C82.7012 30.9789 82.7424 30.685 82.7892 30.3846C82.8374 30.3981 82.8826 30.401 82.885 30.4128C82.9443 30.701 82.9396 30.9879 82.8315 31.2725ZM83.3187 34.3777C83.2871 34.388 83.2621 34.3961 83.2256 34.4079C83.2101 34.366 83.1866 34.3308 83.1856 34.2955C83.1769 33.9877 83.0941 33.6818 83.114 33.3524C83.1749 33.3794 83.2145 33.3969 83.2451 33.4104C83.3228 33.6253 83.3606 34.1172 83.3187 34.3777Z" fill="#8C4673"/>
<path d="M96.9875 10.1775C96.8279 10.0775 96.7142 10.0062 96.5955 9.93186C96.4633 9.99026 96.3403 10.0446 96.1978 10.1075C96.0968 10.0632 95.9886 10.0158 95.8608 9.95978C95.6323 10.0359 95.3889 10.1356 95.1099 10.0321C94.9684 9.95555 94.9249 9.73293 94.694 9.72778C94.5472 9.80996 94.3918 9.89695 94.2166 9.99505C94.0063 9.99136 93.7808 9.98741 93.5543 9.98344C93.3737 10.0988 93.1867 10.2183 92.9856 10.3468C92.4809 10.2885 91.983 10.2309 91.4884 10.1737C91.4215 10.0646 91.3691 9.9793 91.3024 9.87049C91.3842 9.7336 91.4574 9.59195 91.5504 9.46333C91.6008 9.3937 91.6881 9.34935 91.753 9.28809C91.8288 9.21652 91.931 9.15043 91.9652 9.06202C92.1254 8.64675 92.4666 8.33985 92.6722 7.94922C92.6348 7.77146 92.5949 7.59603 92.4838 7.43087C92.2776 7.12413 92.2784 6.78126 92.4608 6.47424C92.859 5.80397 93.2757 5.14303 93.708 4.49232C93.8528 4.27449 94.0602 4.09165 94.255 3.90834C94.3369 3.83133 94.4605 3.7946 94.5341 3.75586C94.8099 3.78534 94.9039 3.95332 94.9799 4.13146C95.0657 4.14908 95.1394 4.16419 95.1984 4.17629C95.3895 4.08426 95.5638 4.00032 95.7424 3.91431C95.8306 3.98255 95.8998 4.0361 95.9526 4.07696C96.0444 4.34816 95.8235 4.49815 95.7316 4.72014C95.8126 4.77355 95.8931 4.82662 95.9701 4.87739C96.2584 4.76979 96.4207 4.48056 96.789 4.49247C96.9709 4.63431 97.2006 4.77556 97.4362 4.73703C97.7228 4.88492 97.9599 5.00723 98.2118 5.13726C98.4658 5.5067 98.7318 5.89355 99.0012 6.28536C98.9995 6.38378 98.9978 6.48049 98.9964 6.56291C99.2035 6.703 99.369 6.54884 99.5433 6.54444C99.7395 6.57126 99.8857 6.70215 99.8631 6.86048C99.8311 7.0859 99.9668 7.24707 100 7.40764C99.982 7.78744 99.76 8.01403 99.5032 8.23204C98.9682 8.68645 98.448 9.15673 97.9172 9.6158C97.646 9.85028 97.3183 10.0005 96.9875 10.1775Z" fill="#8C4673"/>
<path d="M99.3222 37.5432C99.2887 37.0932 99.2482 36.6436 99.1986 36.1532C99.1192 35.3696 98.8329 23.2527 99.0197 20.7834C99.0833 19.942 99.1437 18.279 98.4015 17.6299C97.4327 16.7826 95.6316 16.7605 94.4182 16.434C93.1879 16.1029 91.6518 15.872 90.9362 17.0152C90.7107 17.3757 90.6589 17.8358 90.6832 18.3214C90.7294 19.2425 90.4741 20.2665 90.4681 21.2073C90.4583 22.7163 90.5338 24.2263 90.6303 25.7317C90.8354 28.933 91.1236 32.1366 91.4582 35.3269C91.6828 37.4687 92.265 39.5794 92.4775 41.7112C92.5228 42.1651 92.6959 42.5937 92.7539 43.0444C92.7627 43.1127 92.8159 43.176 92.843 43.2305C93.029 43.267 93.2027 43.301 93.3677 43.3333C93.5836 43.1011 93.5841 42.8472 93.5219 42.5811C93.4975 42.4768 93.4408 42.3694 93.5395 42.236C93.7074 42.3999 93.7943 42.5802 93.8722 42.7652C93.9417 42.9304 94.0186 43.0893 94.2124 43.1539C94.2532 43.1675 94.2989 43.1674 94.3371 43.1729C94.4058 43.1061 94.4673 43.0464 94.5229 42.9924C94.5982 43.0135 94.6562 43.0298 94.7235 43.0487C94.801 42.9606 94.8789 42.872 94.9678 42.771C95.1983 42.7727 95.4125 42.6688 95.553 42.5054C95.6964 42.3386 95.8737 42.4017 96.0451 42.3583C96.1012 42.2427 96.1584 42.1249 96.2109 42.0166C96.1806 41.8141 96.1525 41.6271 96.126 41.4505C96.1817 41.3182 96.2324 41.1977 96.2883 41.065C96.4193 41.096 96.5485 41.1266 96.687 41.1594C96.8595 41.0016 97.0218 40.8532 97.1613 40.7256C97.1768 40.5525 97.1882 40.425 97.1952 40.3463C97.404 40.2492 97.5743 40.1701 97.7431 40.0916C97.822 40.1471 97.9 40.2019 97.9956 40.269C98.1091 40.0899 98.2028 39.9421 98.2891 39.8059C98.2625 39.5801 98.2308 39.3783 98.2166 39.1755C98.199 38.9241 98.2226 38.6756 98.4049 38.4747C98.4573 38.417 98.5447 38.3881 98.6506 38.3257C98.702 38.4846 98.741 38.6077 98.7817 38.7304C98.8138 38.8269 98.836 38.9291 98.8858 39.0167C98.9142 39.0667 98.9892 39.0926 99.0576 39.1392C99.1798 38.8825 99.129 38.649 99.1394 38.429C99.3511 38.0039 99.3565 38.0036 99.3222 37.5432ZM92.2164 30.3667C92.1909 30.1158 92.041 29.8848 92.148 29.6026C92.241 29.6341 92.3134 29.6586 92.4145 29.6929C92.3118 29.9277 92.4555 30.1863 92.2164 30.3667ZM93.661 36.5342C93.6355 36.2833 93.4856 36.0523 93.5926 35.7701C93.6857 35.8017 93.7581 35.8261 93.8592 35.8604C93.7565 36.0952 93.9001 36.3538 93.661 36.5342ZM97.77 31.0183C97.8402 31.4083 98.0424 31.7761 98.0125 32.2228C97.8298 31.9901 97.7034 31.408 97.77 31.0183ZM98.2354 35.9735C98.1555 35.8634 98.0977 35.8175 98.0889 35.7644C98.0777 35.6961 98.0799 35.6259 98.0826 35.5556C98.0695 35.555 98.0564 35.5543 98.0433 35.5537C98.0338 35.1393 97.9321 34.7267 97.9929 34.2691C98.15 34.5601 98.2239 35.0306 98.2038 35.466C98.2173 35.4667 98.2308 35.4673 98.2442 35.4679C98.2417 35.6099 98.2393 35.7519 98.2354 35.9735Z" fill="#8C4673"/>
</svg>
